name rise30.8019peak61.5557fall86.2505.mot
datacolumns 19
datarows 21
range 7.79663600000000 7.82998000000000
endheader
time	ground_force1_vx	ground_force1_vy	ground_force1_vz	ground_force1_px	ground_force1_py	ground_force1_pz	ground_force2_vx	ground_force2_vy	ground_force2_vz	ground_force2_px	ground_force2_py	ground_force2_pz	ground_torque1_x	ground_torque1_y	ground_torque1_z	ground_torque2_x	ground_torque2_y	ground_torque2_z	
7.79663600000000	1.43307600000000	687.23951699999998	30.28935800000000	0.13200100000000	0.00000000000000	0.09189300000000	0.00000000000000	0.00000000000000	0.00000000000000	0.00000000000000	0.00000000000000	0.00000000000000	0.00000000000000	10.33291400000000	0.00000000000000	0.00000000000000	0.00000000000000	0.00000000000000	
7.79830700000000	0.82781100000000	688.52096600000004	30.28659000000000	0.13091100000000	0.00000000000000	0.09190400000000	0.00000000000000	0.00000000000000	0.00000000000000	0.00000000000000	0.00000000000000	0.00000000000000	0.00000000000000	10.43536100000000	0.00000000000000	0.00000000000000	0.00000000000000	0.00000000000000	
7.79998400000000	0.21824300000000	689.80247299999996	30.28490400000000	0.12982500000000	0.00000000000000	0.09191500000000	0.00000000000000	0.00000000000000	0.00000000000000	0.00000000000000	0.00000000000000	0.00000000000000	0.00000000000000	10.53920700000000	0.00000000000000	0.00000000000000	0.00000000000000	0.00000000000000	
7.80164000000000	-0.39539100000000	691.08431700000006	30.28456600000000	0.12874200000000	0.00000000000000	0.09192600000000	0.00000000000000	0.00000000000000	0.00000000000000	0.00000000000000	0.00000000000000	0.00000000000000	0.00000000000000	10.64439800000000	0.00000000000000	0.00000000000000	0.00000000000000	0.00000000000000	
7.80330500000000	-1.01285100000000	692.36689300000000	30.28585000000000	0.12766100000000	0.00000000000000	0.09193700000000	0.00000000000000	0.00000000000000	0.00000000000000	0.00000000000000	0.00000000000000	0.00000000000000	0.00000000000000	10.75087800000000	0.00000000000000	0.00000000000000	0.00000000000000	0.00000000000000	
7.80498400000000	-1.63389600000000	693.65070300000002	30.28903800000000	0.12658400000000	0.00000000000000	0.09194900000000	0.00000000000000	0.00000000000000	0.00000000000000	0.00000000000000	0.00000000000000	0.00000000000000	0.00000000000000	10.85858800000000	0.00000000000000	0.00000000000000	0.00000000000000	0.00000000000000	
7.80665300000000	-2.25827800000000	694.93635099999995	30.29441600000000	0.12550900000000	0.00000000000000	0.09196000000000	0.00000000000000	0.00000000000000	0.00000000000000	0.00000000000000	0.00000000000000	0.00000000000000	0.00000000000000	10.96746900000000	0.00000000000000	0.00000000000000	0.00000000000000	0.00000000000000	
7.80830500000000	-2.88575100000000	696.22453800000005	30.30227500000000	0.12443600000000	0.00000000000000	0.09197200000000	0.00000000000000	0.00000000000000	0.00000000000000	0.00000000000000	0.00000000000000	0.00000000000000	0.00000000000000	11.07745800000000	0.00000000000000	0.00000000000000	0.00000000000000	0.00000000000000	
7.80999400000000	-3.51606300000000	697.51605600000005	30.31290900000000	0.12336500000000	0.00000000000000	0.09198500000000	0.00000000000000	0.00000000000000	0.00000000000000	0.00000000000000	0.00000000000000	0.00000000000000	0.00000000000000	11.18849200000000	0.00000000000000	0.00000000000000	0.00000000000000	0.00000000000000	
7.81163800000000	-4.14896100000000	698.81177800000000	30.32661400000000	0.12229500000000	0.00000000000000	0.09199700000000	0.00000000000000	0.00000000000000	0.00000000000000	0.00000000000000	0.00000000000000	0.00000000000000	0.00000000000000	11.30050200000000	0.00000000000000	0.00000000000000	0.00000000000000	0.00000000000000	
7.81330800000000	-4.78419000000000	700.11265100000003	30.34368500000000	0.12122700000000	0.00000000000000	0.09201000000000	0.00000000000000	0.00000000000000	0.00000000000000	0.00000000000000	0.00000000000000	0.00000000000000	0.00000000000000	11.41341800000000	0.00000000000000	0.00000000000000	0.00000000000000	0.00000000000000	
7.81497900000000	-5.42149300000000	701.41968799999995	30.36441600000000	0.12015900000000	0.00000000000000	0.09202400000000	0.00000000000000	0.00000000000000	0.00000000000000	0.00000000000000	0.00000000000000	0.00000000000000	0.00000000000000	11.52716800000000	0.00000000000000	0.00000000000000	0.00000000000000	0.00000000000000	
7.81663800000000	-6.06061000000000	702.73396100000002	30.38909800000000	0.11909200000000	0.00000000000000	0.09203700000000	0.00000000000000	0.00000000000000	0.00000000000000	0.00000000000000	0.00000000000000	0.00000000000000	0.00000000000000	11.64167500000000	0.00000000000000	0.00000000000000	0.00000000000000	0.00000000000000	
7.81831200000000	-6.70128000000000	704.05659000000003	30.41802000000000	0.11802500000000	0.00000000000000	0.09205200000000	0.00000000000000	0.00000000000000	0.00000000000000	0.00000000000000	0.00000000000000	0.00000000000000	0.00000000000000	11.75686100000000	0.00000000000000	0.00000000000000	0.00000000000000	0.00000000000000	
7.81997100000000	-7.34324000000000	705.38873300000000	30.45146600000000	0.11695800000000	0.00000000000000	0.09206600000000	0.00000000000000	0.00000000000000	0.00000000000000	0.00000000000000	0.00000000000000	0.00000000000000	0.00000000000000	11.87264200000000	0.00000000000000	0.00000000000000	0.00000000000000	0.00000000000000	
7.82163800000000	-7.98622500000000	706.73158000000001	30.48971200000000	0.11589000000000	0.00000000000000	0.09208100000000	0.00000000000000	0.00000000000000	0.00000000000000	0.00000000000000	0.00000000000000	0.00000000000000	0.00000000000000	11.98893200000000	0.00000000000000	0.00000000000000	0.00000000000000	0.00000000000000	
7.82330400000000	-8.62996800000000	708.08634199999995	30.53303100000000	0.11482200000000	0.00000000000000	0.09209700000000	0.00000000000000	0.00000000000000	0.00000000000000	0.00000000000000	0.00000000000000	0.00000000000000	0.00000000000000	12.10564100000000	0.00000000000000	0.00000000000000	0.00000000000000	0.00000000000000	
7.82498300000000	-9.27419900000000	709.45423800000003	30.58168400000000	0.11375300000000	0.00000000000000	0.09211300000000	0.00000000000000	0.00000000000000	0.00000000000000	0.00000000000000	0.00000000000000	0.00000000000000	0.00000000000000	12.22267700000000	0.00000000000000	0.00000000000000	0.00000000000000	0.00000000000000	
7.82664100000000	-9.91864800000000	710.83648900000003	30.63592700000000	0.11268300000000	0.00000000000000	0.09213000000000	0.00000000000000	0.00000000000000	0.00000000000000	0.00000000000000	0.00000000000000	0.00000000000000	0.00000000000000	12.33994200000000	0.00000000000000	0.00000000000000	0.00000000000000	0.00000000000000	
7.82830900000000	-10.56304100000000	712.23430800000006	30.69600500000000	0.11161100000000	0.00000000000000	0.09214700000000	0.00000000000000	0.00000000000000	0.00000000000000	0.00000000000000	0.00000000000000	0.00000000000000	0.00000000000000	12.45733600000000	0.00000000000000	0.00000000000000	0.00000000000000	0.00000000000000	
7.82998000000000	-11.20710400000000	713.64888499999995	30.76215300000000	0.11053700000000	0.00000000000000	0.09216400000000	0.00000000000000	0.00000000000000	0.00000000000000	0.00000000000000	0.00000000000000	0.00000000000000	0.00000000000000	12.57475500000000	0.00000000000000	0.00000000000000	0.00000000000000	0.00000000000000	
